<mxfile host="app.diagrams.net" modified="2023-06-29T06:46:26.592Z" agent="Mozilla/5.0 (X11; Ubuntu; Linux x86_64; rv:109.0) Gecko/20100101 Firefox/114.0" etag="bbxFZyXlwDU5kDMoG2Iz" version="21.3.5">
  <diagram name="Page-1" id="O8cnq2PnWC07Ag3K9qyT">
    <mxGraphModel dx="541" dy="280" grid="1" gridSize="7" guides="1" tooltips="1" connect="1" arrows="1" fold="1" page="1" pageScale="1" pageWidth="850" pageHeight="1100" math="1" shadow="0">
      <root>
        <mxCell id="0" />
        <mxCell id="1" parent="0" />
        <mxCell id="8kgRAYBx2GG8_m0DmtDB-5" value="" style="triangle;whiteSpace=wrap;html=1;rotation=90;" vertex="1" parent="1">
          <mxGeometry x="238" y="344.12" width="17.25" height="35" as="geometry" />
        </mxCell>
        <mxCell id="8kgRAYBx2GG8_m0DmtDB-7" value="" style="triangle;whiteSpace=wrap;html=1;rotation=-90;" vertex="1" parent="1">
          <mxGeometry x="238" y="361.5" width="17.25" height="34.5" as="geometry" />
        </mxCell>
        <mxCell id="8kgRAYBx2GG8_m0DmtDB-8" value="FIFO " style="ellipse;whiteSpace=wrap;html=1;" vertex="1" parent="1">
          <mxGeometry x="123.38" y="252" width="231" height="80" as="geometry" />
        </mxCell>
        <mxCell id="8kgRAYBx2GG8_m0DmtDB-9" value="" style="verticalLabelPosition=middle;verticalAlign=middle;html=1;shape=trapezoid;perimeter=trapezoidPerimeter;whiteSpace=wrap;size=0.2727272727272727;arcSize=10;flipV=1;labelPosition=center;align=center;rotation=-90;" vertex="1" parent="1">
          <mxGeometry x="126" y="378" width="44.62" height="18" as="geometry" />
        </mxCell>
        <mxCell id="8kgRAYBx2GG8_m0DmtDB-11" value="" style="endArrow=classicThin;html=1;rounded=0;entryX=0.254;entryY=0.94;entryDx=0;entryDy=0;entryPerimeter=0;exitX=0.634;exitY=0.01;exitDx=0;exitDy=0;exitPerimeter=0;startArrow=none;startFill=0;endFill=1;endSize=3;" edge="1" parent="1" source="8kgRAYBx2GG8_m0DmtDB-9" target="8kgRAYBx2GG8_m0DmtDB-8">
          <mxGeometry width="50" height="50" relative="1" as="geometry">
            <mxPoint x="175" y="378" as="sourcePoint" />
            <mxPoint x="169" y="308" as="targetPoint" />
            <Array as="points">
              <mxPoint x="182" y="381" />
            </Array>
          </mxGeometry>
        </mxCell>
        <mxCell id="8kgRAYBx2GG8_m0DmtDB-13" value="" style="endArrow=classic;html=1;rounded=0;entryX=-0.002;entryY=-0.006;entryDx=0;entryDy=0;entryPerimeter=0;exitX=0.449;exitY=0.002;exitDx=0;exitDy=0;exitPerimeter=0;endFill=1;endSize=3;" edge="1" parent="1" source="8kgRAYBx2GG8_m0DmtDB-9" target="8kgRAYBx2GG8_m0DmtDB-7">
          <mxGeometry width="50" height="50" relative="1" as="geometry">
            <mxPoint x="84" y="353" as="sourcePoint" />
            <mxPoint x="169" y="308" as="targetPoint" />
          </mxGeometry>
        </mxCell>
        <mxCell id="8kgRAYBx2GG8_m0DmtDB-14" value="" style="endArrow=classic;html=1;rounded=0;entryX=0.019;entryY=1.003;entryDx=0;entryDy=0;entryPerimeter=0;exitX=0.285;exitY=0.944;exitDx=0;exitDy=0;exitPerimeter=0;jumpStyle=arc;endFill=1;endSize=3;" edge="1" parent="1" source="8kgRAYBx2GG8_m0DmtDB-8" target="8kgRAYBx2GG8_m0DmtDB-5">
          <mxGeometry width="50" height="50" relative="1" as="geometry">
            <mxPoint x="105" y="358" as="sourcePoint" />
            <mxPoint x="155" y="308" as="targetPoint" />
            <Array as="points">
              <mxPoint x="189" y="353" />
            </Array>
          </mxGeometry>
        </mxCell>
        <mxCell id="8kgRAYBx2GG8_m0DmtDB-15" value="" style="endArrow=classicThin;html=1;rounded=0;exitX=0.022;exitY=0.002;exitDx=0;exitDy=0;exitPerimeter=0;entryX=0.737;entryY=0.963;entryDx=0;entryDy=0;entryPerimeter=0;endFill=1;endSize=3;jumpStyle=none;" edge="1" parent="1" source="8kgRAYBx2GG8_m0DmtDB-5" target="8kgRAYBx2GG8_m0DmtDB-8">
          <mxGeometry width="50" height="50" relative="1" as="geometry">
            <mxPoint x="217" y="330" as="sourcePoint" />
            <mxPoint x="267" y="280" as="targetPoint" />
            <Array as="points">
              <mxPoint x="294" y="353" />
            </Array>
          </mxGeometry>
        </mxCell>
        <mxCell id="8kgRAYBx2GG8_m0DmtDB-30" style="edgeStyle=orthogonalEdgeStyle;rounded=0;orthogonalLoop=1;jettySize=auto;html=1;entryX=0;entryY=0.75;entryDx=0;entryDy=0;endArrow=none;endFill=0;" edge="1" parent="1" source="8kgRAYBx2GG8_m0DmtDB-16" target="8kgRAYBx2GG8_m0DmtDB-9">
          <mxGeometry relative="1" as="geometry">
            <mxPoint x="231" y="406" as="targetPoint" />
            <Array as="points">
              <mxPoint x="252" y="420" />
              <mxPoint x="151" y="420" />
            </Array>
          </mxGeometry>
        </mxCell>
        <mxCell id="8kgRAYBx2GG8_m0DmtDB-31" style="edgeStyle=orthogonalEdgeStyle;rounded=0;orthogonalLoop=1;jettySize=auto;html=1;entryX=0;entryY=0.5;entryDx=0;entryDy=0;endArrow=none;endFill=0;" edge="1" parent="1" source="8kgRAYBx2GG8_m0DmtDB-16" target="8kgRAYBx2GG8_m0DmtDB-20">
          <mxGeometry relative="1" as="geometry">
            <Array as="points">
              <mxPoint x="252" y="420" />
              <mxPoint x="357" y="420" />
              <mxPoint x="357" y="403" />
            </Array>
          </mxGeometry>
        </mxCell>
        <mxCell id="8kgRAYBx2GG8_m0DmtDB-16" value="controller" style="rounded=0;whiteSpace=wrap;html=1;" vertex="1" parent="1">
          <mxGeometry x="224" y="434" width="56" height="21" as="geometry" />
        </mxCell>
        <mxCell id="8kgRAYBx2GG8_m0DmtDB-20" value="" style="verticalLabelPosition=middle;verticalAlign=middle;html=1;shape=trapezoid;perimeter=trapezoidPerimeter;whiteSpace=wrap;size=0.2727272727272727;arcSize=10;flipV=1;labelPosition=center;align=center;rotation=-90;" vertex="1" parent="1">
          <mxGeometry x="325.31" y="368.31" width="64" height="18" as="geometry" />
        </mxCell>
        <mxCell id="8kgRAYBx2GG8_m0DmtDB-23" value="" style="endArrow=classic;html=1;rounded=0;entryX=0.327;entryY=1.099;entryDx=0;entryDy=0;exitX=-0.013;exitY=1.006;exitDx=0;exitDy=0;exitPerimeter=0;entryPerimeter=0;endSize=3;" edge="1" parent="1" source="8kgRAYBx2GG8_m0DmtDB-7" target="8kgRAYBx2GG8_m0DmtDB-20">
          <mxGeometry width="50" height="50" relative="1" as="geometry">
            <mxPoint x="210" y="379" as="sourcePoint" />
            <mxPoint x="260" y="329" as="targetPoint" />
          </mxGeometry>
        </mxCell>
        <mxCell id="8kgRAYBx2GG8_m0DmtDB-24" value="" style="endArrow=classic;html=1;rounded=0;exitX=0.404;exitY=0.992;exitDx=0;exitDy=0;exitPerimeter=0;endSize=3;jumpStyle=arc;entryX=0.477;entryY=1.084;entryDx=0;entryDy=0;entryPerimeter=0;" edge="1" parent="1" source="8kgRAYBx2GG8_m0DmtDB-8" target="8kgRAYBx2GG8_m0DmtDB-20">
          <mxGeometry width="50" height="50" relative="1" as="geometry">
            <mxPoint x="294" y="377" as="sourcePoint" />
            <mxPoint x="343" y="378" as="targetPoint" />
            <Array as="points">
              <mxPoint x="217" y="343" />
              <mxPoint x="280" y="343" />
              <mxPoint x="280" y="378" />
            </Array>
          </mxGeometry>
        </mxCell>
        <mxCell id="8kgRAYBx2GG8_m0DmtDB-25" value="+" style="ellipse;whiteSpace=wrap;html=1;aspect=fixed;" vertex="1" parent="1">
          <mxGeometry x="257.88" y="382.5" width="13.5" height="13.5" as="geometry" />
        </mxCell>
        <mxCell id="8kgRAYBx2GG8_m0DmtDB-27" value="-" style="ellipse;whiteSpace=wrap;html=1;aspect=fixed;" vertex="1" parent="1">
          <mxGeometry x="256.88" y="346" width="13.5" height="13.5" as="geometry" />
        </mxCell>
        <mxCell id="8kgRAYBx2GG8_m0DmtDB-28" value="" style="endArrow=classic;html=1;rounded=0;entryX=0.526;entryY=0.988;entryDx=0;entryDy=0;entryPerimeter=0;endSize=3;" edge="1" parent="1" target="8kgRAYBx2GG8_m0DmtDB-9">
          <mxGeometry width="50" height="50" relative="1" as="geometry">
            <mxPoint x="98" y="386" as="sourcePoint" />
            <mxPoint x="225" y="336" as="targetPoint" />
          </mxGeometry>
        </mxCell>
        <mxCell id="8kgRAYBx2GG8_m0DmtDB-29" value="" style="endArrow=classic;html=1;rounded=0;endSize=3;exitX=0.375;exitY=0.008;exitDx=0;exitDy=0;exitPerimeter=0;" edge="1" parent="1" source="8kgRAYBx2GG8_m0DmtDB-20">
          <mxGeometry width="50" height="50" relative="1" as="geometry">
            <mxPoint x="367.38" y="386.86" as="sourcePoint" />
            <mxPoint x="412" y="385" as="targetPoint" />
          </mxGeometry>
        </mxCell>
        <mxCell id="8kgRAYBx2GG8_m0DmtDB-32" value="&lt;font style=&quot;font-size: 8px;&quot;&gt;fqmul&lt;/font&gt;" style="rounded=1;whiteSpace=wrap;html=1;" vertex="1" parent="1">
          <mxGeometry x="189" y="384" width="28" height="12" as="geometry" />
        </mxCell>
        <mxCell id="8kgRAYBx2GG8_m0DmtDB-33" value="&lt;font style=&quot;font-size: 8px;&quot;&gt;fqmul&lt;/font&gt;" style="rounded=1;whiteSpace=wrap;html=1;" vertex="1" parent="1">
          <mxGeometry x="294" y="371.5" width="28" height="12" as="geometry" />
        </mxCell>
        <mxCell id="8kgRAYBx2GG8_m0DmtDB-35" value="" style="endArrow=classic;html=1;rounded=0;" edge="1" parent="1">
          <mxGeometry width="50" height="50" relative="1" as="geometry">
            <mxPoint x="245" y="252" as="sourcePoint" />
            <mxPoint x="227.25" y="252" as="targetPoint" />
          </mxGeometry>
        </mxCell>
        <mxCell id="8kgRAYBx2GG8_m0DmtDB-37" value="" style="endArrow=classic;html=1;rounded=0;" edge="1" parent="1">
          <mxGeometry width="50" height="50" relative="1" as="geometry">
            <mxPoint x="238" y="332" as="sourcePoint" />
            <mxPoint x="249" y="332" as="targetPoint" />
          </mxGeometry>
        </mxCell>
        <mxCell id="8kgRAYBx2GG8_m0DmtDB-38" value="" style="endArrow=none;html=1;rounded=0;entryX=0.5;entryY=0;entryDx=0;entryDy=0;exitX=0.5;exitY=1;exitDx=0;exitDy=0;" edge="1" parent="1" source="8kgRAYBx2GG8_m0DmtDB-40" target="8kgRAYBx2GG8_m0DmtDB-33">
          <mxGeometry width="50" height="50" relative="1" as="geometry">
            <mxPoint x="326" y="357" as="sourcePoint" />
            <mxPoint x="260" y="322" as="targetPoint" />
          </mxGeometry>
        </mxCell>
        <mxCell id="8kgRAYBx2GG8_m0DmtDB-40" value="&lt;font style=&quot;font-size: 7px;&quot;&gt;NTT/INTT&lt;/font&gt;" style="text;html=1;strokeColor=none;fillColor=none;align=center;verticalAlign=middle;whiteSpace=wrap;rounded=0;sketch=1;curveFitting=1;jiggle=2;" vertex="1" parent="1">
          <mxGeometry x="296" y="356.37" width="24" height="10.5" as="geometry" />
        </mxCell>
        <mxCell id="8kgRAYBx2GG8_m0DmtDB-41" value="" style="endArrow=none;html=1;rounded=0;exitX=0.5;exitY=1;exitDx=0;exitDy=0;entryX=0.5;entryY=0;entryDx=0;entryDy=0;" edge="1" parent="1" source="8kgRAYBx2GG8_m0DmtDB-32" target="8kgRAYBx2GG8_m0DmtDB-42">
          <mxGeometry width="50" height="50" relative="1" as="geometry">
            <mxPoint x="174.87" y="396" as="sourcePoint" />
            <mxPoint x="175" y="406" as="targetPoint" />
          </mxGeometry>
        </mxCell>
        <mxCell id="8kgRAYBx2GG8_m0DmtDB-42" value="&lt;font style=&quot;font-size: 7px;&quot;&gt;I&lt;font style=&quot;font-size: 7px;&quot;&gt;NTT/NTT&lt;/font&gt;&lt;/font&gt;" style="text;html=1;strokeColor=none;fillColor=none;align=center;verticalAlign=middle;whiteSpace=wrap;rounded=0;sketch=1;curveFitting=1;jiggle=2;" vertex="1" parent="1">
          <mxGeometry x="191" y="406" width="24" height="10.5" as="geometry" />
        </mxCell>
        <mxCell id="8kgRAYBx2GG8_m0DmtDB-44" value="&lt;font style=&quot;font-size: 7px;&quot;&gt;NTT/INTT&lt;/font&gt;" style="text;html=1;strokeColor=none;fillColor=none;align=center;verticalAlign=middle;whiteSpace=wrap;rounded=0;sketch=1;curveFitting=1;jiggle=2;" vertex="1" parent="1">
          <mxGeometry x="182" y="434" width="24" height="10.5" as="geometry" />
        </mxCell>
        <mxCell id="8kgRAYBx2GG8_m0DmtDB-45" value="" style="endArrow=none;html=1;rounded=0;entryX=0;entryY=0.25;entryDx=0;entryDy=0;" edge="1" parent="1" target="8kgRAYBx2GG8_m0DmtDB-16">
          <mxGeometry width="50" height="50" relative="1" as="geometry">
            <mxPoint x="210" y="439" as="sourcePoint" />
            <mxPoint x="260" y="322" as="targetPoint" />
          </mxGeometry>
        </mxCell>
        <mxCell id="8kgRAYBx2GG8_m0DmtDB-46" value="" style="endArrow=classic;html=1;rounded=0;entryX=0.874;entryY=1.107;entryDx=0;entryDy=0;entryPerimeter=0;exitX=0.769;exitY=0.938;exitDx=0;exitDy=0;exitPerimeter=0;endSize=3;" edge="1" parent="1" source="8kgRAYBx2GG8_m0DmtDB-8" target="8kgRAYBx2GG8_m0DmtDB-20">
          <mxGeometry width="50" height="50" relative="1" as="geometry">
            <mxPoint x="231" y="365" as="sourcePoint" />
            <mxPoint x="281" y="315" as="targetPoint" />
            <Array as="points">
              <mxPoint x="301" y="353" />
            </Array>
          </mxGeometry>
        </mxCell>
      </root>
    </mxGraphModel>
  </diagram>
</mxfile>
